<?xml version="1.0" standalone="no"?>
<!DOCTYPE svg PUBLIC "-//W3C//DTD SVG 20010904//EN"
 "http://www.w3.org/TR/2001/REC-SVG-20010904/DTD/svg10.dtd">
<svg version="1.0" xmlns="http://www.w3.org/2000/svg"
 width="1024.000000pt" height="1024.000000pt" viewBox="0 0 1024.000000 1024.000000"
 preserveAspectRatio="xMidYMid meet">

<g transform="translate(0.000000,1024.000000) scale(0.100000,-0.100000)"
fill="#000000" stroke="none">
<path d="M0 5120 l0 -5120 5120 0 5120 0 0 5120 0 5120 -5120 0 -5120 0 0
-5120z m1511 2230 c111 -67 251 -146 311 -176 l109 -55 72 26 c426 154 936
157 1390 9 l77 -26 123 65 c67 36 208 115 312 176 l190 111 3 -66 c2 -36 -4
-93 -12 -127 -23 -91 -117 -271 -181 -347 -30 -35 -54 -67 -53 -70 50 -98 98
-203 96 -205 -2 -2 -138 -6 -303 -10 -332 -8 -404 -17 -504 -66 -92 -45 -207
-162 -255 -256 l-36 -73 -139 0 -138 0 -18 45 c-39 104 -155 220 -286 285
-100 51 -149 58 -489 65 -173 4 -316 8 -318 10 -5 5 52 114 82 158 l26 38 -89
88 c-71 71 -96 104 -130 172 -52 106 -71 182 -71 282 0 66 3 78 15 73 8 -3
105 -60 216 -126z m2516 -1182 c-5 -321 -10 -358 -68 -449 -44 -69 -131 -146
-201 -179 -148 -68 -391 -57 -533 25 -62 36 -142 127 -178 202 -28 61 -31 79
-35 183 -8 233 69 385 237 467 l56 28 340 5 c187 3 351 7 364 8 l23 2 -5 -292z
m-1857 245 c124 -62 195 -143 225 -259 21 -80 20 -276 -1 -341 -26 -80 -101
-182 -169 -228 -98 -67 -155 -80 -336 -80 l-155 0 -75 37 c-132 65 -232 196
-259 337 -5 30 -10 116 -10 192 l0 139 -50 0 c-80 0 -127 33 -144 102 -8 36
14 89 50 117 l28 22 416 -3 415 -3 65 -32z m643 -475 c3 -84 11 -143 25 -187
l21 -64 -47 -60 c-89 -113 -78 -104 -108 -87 -15 8 -53 45 -85 81 l-59 65 22
60 c17 46 23 88 26 187 l4 127 98 0 97 0 6 -122z m-351 -475 c14 -16 40 -50
58 -78 64 -96 142 -196 162 -206 18 -10 29 -3 85 52 35 35 98 106 140 157 41
50 80 92 85 92 5 0 27 -15 49 -33 124 -107 355 -169 538 -146 125 15 318 92
361 144 25 30 31 2 26 -133 -9 -258 -60 -464 -171 -687 -130 -264 -269 -450
-432 -582 -182 -147 -300 -215 -449 -258 -77 -22 -105 -25 -253 -25 -91 0
-289 -5 -439 -11 -150 -7 -276 -9 -279 -5 -4 3 4 14 18 23 60 42 319 266 370
319 99 106 193 265 244 418 52 154 48 152 -187 -80 -170 -168 -270 -256 -493
-433 -396 -316 -496 -419 -626 -643 l-57 -99 -6 48 c-31 240 -47 950 -27 1170
14 150 40 292 71 383 33 100 184 397 240 472 l49 67 54 -25 c109 -49 207 -67
351 -62 115 4 143 9 229 38 97 33 194 86 231 128 24 28 27 28 58 -5z m3680
-481 c101 -50 161 -130 187 -250 18 -86 15 -614 -4 -687 -30 -112 -88 -180
-203 -233 -53 -25 -67 -27 -187 -27 -122 0 -134 2 -192 29 -72 33 -145 104
-173 169 -36 82 -42 150 -38 452 4 251 7 297 23 342 37 105 130 195 234 228
32 10 82 14 166 12 114 -2 124 -4 187 -35z m1815 23 c151 -45 217 -143 238
-352 l6 -63 -114 0 -114 0 -5 63 c-10 117 -49 160 -145 160 -89 0 -142 -34
-169 -110 -16 -45 -20 -522 -4 -587 19 -85 79 -130 172 -129 98 1 136 43 146
160 l5 63 113 0 114 0 0 -37 c0 -61 -20 -165 -39 -209 -29 -64 -84 -118 -153
-150 -59 -27 -71 -29 -193 -29 -122 0 -134 2 -191 28 -105 49 -171 138 -193
261 -14 75 -14 575 -1 647 36 193 172 298 386 299 52 0 112 -6 141 -15z m914
-1 c62 -18 133 -63 168 -106 13 -17 36 -58 50 -91 26 -61 26 -66 29 -361 2
-190 0 -323 -8 -365 -22 -134 -93 -227 -209 -273 -48 -19 -75 -23 -181 -23
-122 0 -127 1 -192 33 -107 52 -166 138 -187 272 -14 84 -14 526 0 610 25 158
110 261 254 306 57 18 210 17 276 -2z m-4178 -103 l2 -101 -187 0 -188 0 0
-140 0 -140 170 0 170 0 0 -110 0 -110 -170 0 -170 0 0 -145 0 -145 190 0 190
0 0 -105 0 -105 -294 0 -293 0 -7 77 c-3 42 -6 312 -6 599 l0 524 293 2 c160
2 293 2 295 1 2 0 4 -47 5 -102z m367 -397 l0 -494 185 0 185 0 0 -105 0 -105
-288 0 -289 0 -6 143 c-4 78 -7 349 -7 602 l0 460 110 -3 110 -3 0 -495z
m1642 63 c3 -415 4 -434 24 -477 27 -57 62 -89 109 -100 80 -18 160 14 191 78
18 35 19 64 15 485 l-3 447 111 0 112 0 -3 -472 c-3 -465 -4 -474 -26 -529
-32 -80 -90 -142 -170 -181 -65 -32 -70 -33 -197 -33 -119 0 -135 2 -185 26
-79 37 -123 79 -156 151 l-29 63 -5 485 c-3 267 -4 487 -3 490 0 3 48 4 106 2
l106 -3 3 -432z m-2832 -1108 l0 -112 -1022 4 c-987 4 -1024 3 -1061 -15 -103
-51 -131 -195 -54 -283 68 -77 -6 -72 1126 -79 l1011 -7 0 -105 0 -105 -1009
6 c-681 5 -1027 11 -1063 18 -129 27 -236 107 -290 217 -31 62 -33 73 -33 172
0 94 3 111 28 165 39 83 99 159 141 179 71 33 192 39 1061 45 473 4 929 8
1013 9 l152 2 0 -111z"/>
<path d="M3380 6231 c-80 -26 -157 -100 -178 -169 -63 -208 134 -397 339 -327
131 45 199 187 157 327 -15 50 -79 123 -131 150 -45 22 -145 33 -187 19z"/>
<path d="M1900 6231 c-106 -33 -177 -121 -187 -233 -22 -232 260 -366 439
-209 79 69 105 209 58 306 -52 107 -197 170 -310 136z"/>
<path d="M5893 4811 c-56 -14 -97 -45 -120 -91 -22 -43 -23 -54 -23 -305 0
-150 5 -276 11 -298 12 -46 58 -100 99 -117 18 -7 56 -11 95 -8 77 5 110 25
143 88 21 43 22 53 22 315 -1 282 -6 322 -47 367 -38 42 -118 64 -180 49z"/>
<path d="M8687 4810 c-43 -8 -81 -33 -111 -74 -20 -26 -21 -43 -24 -314 -2
-185 1 -300 7 -324 30 -101 179 -147 274 -84 65 44 72 71 72 271 0 99 -2 237
-5 307 -4 108 -8 131 -26 155 -40 54 -111 78 -187 63z"/>
</g>
</svg>
